<?xml version="1.0" standalone="no"?>
<!DOCTYPE svg PUBLIC "-//W3C//DTD SVG 20010904//EN"
 "http://www.w3.org/TR/2001/REC-SVG-20010904/DTD/svg10.dtd">
<svg version="1.0" xmlns="http://www.w3.org/2000/svg"
 width="1024.000000pt" height="1024.000000pt" viewBox="0 0 1024.000000 1024.000000"
 preserveAspectRatio="xMidYMid meet">

<g transform="translate(0.000000,1024.000000) scale(0.100000,-0.100000)"
fill="currentColor" stroke="none">
<path d="M4315 6739 c-323 -12 -428 -31 -645 -119 -184 -75 -260 -120 -447
-266 -90 -71 -240 -231 -301 -320 -55 -82 -123 -222 -160 -331 -80 -234 -92
-593 -28 -852 81 -325 305 -632 606 -832 238 -158 336 -196 630 -245 94 -16
214 -18 1188 -21 l1083 -4 10 -27 c7 -18 9 -85 4 -197 -7 -163 -16 -239 -50
-390 -9 -38 -18 -82 -22 -97 -7 -37 12 -58 52 -58 18 0 38 -7 45 -15 33 -40
99 -8 356 173 202 142 275 204 481 408 151 151 281 301 365 424 187 274 244
374 322 572 80 201 90 261 90 568 1 218 -2 281 -17 355 -31 151 -113 339 -233
535 -89 145 -295 348 -484 477 -65 44 -256 138 -342 168 -291 102 -339 105
-1421 103 -491 -1 -977 -5 -1082 -9z m247 -979 c26 -20 46 -74 88 -242 13 -48
30 -100 40 -115 23 -38 102 -70 135 -55 13 6 55 58 95 116 81 119 122 160 179
177 59 17 103 5 145 -41 48 -54 67 -94 115 -245 22 -72 47 -139 54 -149 20
-27 98 -55 126 -44 16 5 37 40 72 114 56 117 112 187 174 215 49 23 113 24
142 4 12 -8 52 -74 90 -146 74 -142 106 -182 159 -199 60 -20 77 -9 144 99 33
55 77 114 96 130 54 48 82 43 158 -31 128 -125 226 -167 392 -168 84 0 114 -4
123 -14 21 -25 -20 -36 -141 -36 -228 -1 -482 -17 -518 -32 -37 -16 -68 -51
-112 -129 -37 -62 -117 -146 -150 -154 -17 -4 -42 0 -71 13 -40 18 -52 31
-103 119 -51 87 -153 214 -191 236 -25 15 -51 -21 -130 -177 -42 -83 -88 -173
-101 -199 -32 -62 -76 -95 -143 -108 -81 -17 -116 2 -176 94 -55 83 -124 153
-169 173 -81 34 -159 -19 -230 -158 -98 -194 -150 -237 -283 -238 -110 0 -178
36 -273 143 -108 122 -190 200 -241 230 -58 34 -210 73 -317 82 -47 4 -100 11
-118 17 -68 21 -79 116 -21 183 38 43 94 61 244 79 138 17 184 31 261 82 61
40 96 80 174 199 67 102 115 153 165 176 52 24 86 24 117 -1z"/>
</g>
</svg>
